<svg width="391" height="680" viewBox="0 0 391 680" fill="none" xmlns="http://www.w3.org/2000/svg">
<g filter="url(#filter0_dd_3414_14540)">
<path d="M366.085 38C358.003 38 351.451 31.732 351.451 24L346.877 24C346.877 26.8995 344.42 29.25 341.389 29.25C338.358 29.25 335.901 26.8995 335.901 24L328.584 24C328.584 26.8995 326.127 29.25 323.096 29.25C320.065 29.25 317.608 26.8995 317.608 24L310.291 24C310.291 26.8995 307.834 29.25 304.803 29.25C301.772 29.25 299.315 26.8995 299.315 24L291.997 24C291.997 26.8995 289.54 29.25 286.509 29.25C283.478 29.25 281.021 26.8995 281.021 24L273.704 24C273.704 26.8995 271.247 29.25 268.216 29.25C265.185 29.25 262.728 26.8995 262.728 24L255.411 24C255.411 26.8995 252.954 29.25 249.923 29.25C246.892 29.25 244.435 26.8995 244.435 24L237.117 24C237.117 26.8995 234.66 29.25 231.629 29.25C228.598 29.25 226.141 26.8995 226.141 24L218.824 24C218.824 26.8995 216.367 29.25 213.336 29.25C210.305 29.25 207.848 26.8995 207.848 24L200.531 24C200.531 26.8995 198.074 29.25 195.043 29.25C192.012 29.25 189.555 26.8995 189.555 24L182.237 24C182.237 26.8995 179.78 29.25 176.749 29.25C173.718 29.25 171.261 26.8995 171.261 24L163.944 24C163.944 26.8995 161.487 29.25 158.456 29.25C155.425 29.25 152.968 26.8995 152.968 24L145.651 24C145.651 26.8995 143.194 29.25 140.163 29.25C137.132 29.25 134.675 26.8995 134.675 24L127.357 24C127.357 26.8995 124.9 29.25 121.869 29.25C118.838 29.25 116.381 26.8995 116.381 24L109.064 24C109.064 26.8995 106.607 29.25 103.576 29.25C100.545 29.25 98.088 26.8995 98.088 24L90.7707 24C90.7707 26.8995 88.3136 29.25 85.2827 29.25C82.2517 29.25 79.7947 26.8995 79.7947 24L72.4773 24C72.4773 26.8995 70.0203 29.25 66.9893 29.25C63.9584 29.25 61.5013 26.8995 61.5013 24L54.184 24C54.184 26.8995 51.727 29.25 48.696 29.25C45.6651 29.25 43.208 26.8995 43.208 24L37.72 24C37.72 31.4381 31.6564 37.5214 24 37.9731L24 38L366.085 38Z" fill="white"/>
<path d="M367 37.9731C366.698 37.991 366.393 38 366.085 38L367 38L367 37.9731Z" fill="white"/>
<rect width="343" height="604" transform="translate(24 38)" fill="white"/>
<path d="M24.9147 642C32.9972 642 39.5493 648.268 39.5493 656H44.1227C44.1227 653.101 46.5797 650.75 49.6107 650.75C52.6416 650.75 55.0987 653.101 55.0987 656H62.416C62.416 653.101 64.8731 650.75 67.904 650.75C70.9349 650.75 73.392 653.101 73.392 656H80.7093C80.7093 653.101 83.1664 650.75 86.1973 650.75C89.2283 650.75 91.6853 653.101 91.6853 656H99.0027C99.0027 653.101 101.46 650.75 104.491 650.75C107.522 650.75 109.979 653.101 109.979 656H117.296C117.296 653.101 119.753 650.75 122.784 650.75C125.815 650.75 128.272 653.101 128.272 656H135.589C135.589 653.101 138.046 650.75 141.077 650.75C144.108 650.75 146.565 653.101 146.565 656H153.883C153.883 653.101 156.34 650.75 159.371 650.75C162.402 650.75 164.859 653.101 164.859 656H172.176C172.176 653.101 174.633 650.75 177.664 650.75C180.695 650.75 183.152 653.101 183.152 656H190.469C190.469 653.101 192.926 650.75 195.957 650.75C198.988 650.75 201.445 653.101 201.445 656H208.763C208.763 653.101 211.22 650.75 214.251 650.75C217.282 650.75 219.739 653.101 219.739 656H227.056C227.056 653.101 229.513 650.75 232.544 650.75C235.575 650.75 238.032 653.101 238.032 656H245.349C245.349 653.101 247.806 650.75 250.837 650.75C253.868 650.75 256.325 653.101 256.325 656H263.643C263.643 653.101 266.1 650.75 269.131 650.75C272.162 650.75 274.619 653.101 274.619 656H281.936C281.936 653.101 284.393 650.75 287.424 650.75C290.455 650.75 292.912 653.101 292.912 656H300.229C300.229 653.101 302.686 650.75 305.717 650.75C308.748 650.75 311.205 653.101 311.205 656H318.523C318.523 653.101 320.98 650.75 324.011 650.75C327.042 650.75 329.499 653.101 329.499 656H336.816C336.816 653.101 339.273 650.75 342.304 650.75C345.335 650.75 347.792 653.101 347.792 656H353.28C353.28 648.562 359.344 642.479 367 642.027V642H24.9147Z" fill="white"/>
<path d="M24 642.027C24.3025 642.009 24.6075 642 24.9147 642H24V642.027Z" fill="white"/>
</g>
<defs>
<filter id="filter0_dd_3414_14540" x="0" y="0" width="391" height="680" filterUnits="userSpaceOnUse" color-interpolation-filters="sRGB">
<feFlood flood-opacity="0" result="BackgroundImageFix"/>
<feColorMatrix in="SourceAlpha" type="matrix" values="0 0 0 0 0 0 0 0 0 0 0 0 0 0 0 0 0 0 127 0" result="hardAlpha"/>
<feOffset dy="4"/>
<feGaussianBlur stdDeviation="4"/>
<feColorMatrix type="matrix" values="0 0 0 0 0 0 0 0 0 0 0 0 0 0 0 0 0 0 0.08 0"/>
<feBlend mode="normal" in2="BackgroundImageFix" result="effect1_dropShadow_3414_14540"/>
<feColorMatrix in="SourceAlpha" type="matrix" values="0 0 0 0 0 0 0 0 0 0 0 0 0 0 0 0 0 0 127 0" result="hardAlpha"/>
<feOffset/>
<feGaussianBlur stdDeviation="12"/>
<feColorMatrix type="matrix" values="0 0 0 0 0 0 0 0 0 0 0 0 0 0 0 0 0 0 0.1 0"/>
<feBlend mode="normal" in2="effect1_dropShadow_3414_14540" result="effect2_dropShadow_3414_14540"/>
<feBlend mode="normal" in="SourceGraphic" in2="effect2_dropShadow_3414_14540" result="shape"/>
</filter>
</defs>
</svg>
