<svg width="117" height="40" viewBox="0 0 117 40" fill="none" xmlns="http://www.w3.org/2000/svg">
<path fill-rule="evenodd" clip-rule="evenodd" d="M19.9994 3.53414L3.53386 20.0002L19.9994 36.4661L36.4664 20.0002L19.9994 3.53414ZM33.291 13.3161V6.70984H26.6836L19.9994 0L13.3161 6.70984H6.6837V13.3161L0 20.0002L6.6837 26.6839V33.2907H13.3161L19.9994 40L26.6836 33.2907H33.291V26.6839L39.975 20.0002L33.291 13.3161ZM31.6262 27.1707V31.6521H27.1701L25.5057 33.2907L19.9994 38.8218L14.494 33.2907L12.8296 31.6521H8.34851V27.1707L6.6837 25.5057L1.17818 20.0002L6.6837 14.4943L8.34851 12.8299V8.37381H12.8296L19.9994 1.17791L25.5057 6.70984L27.1701 8.37381H31.6262V12.8299L33.291 14.4943L38.7971 20.0002L33.291 25.5057L31.6262 27.1707Z" fill="#007A5D"/>
<path fill-rule="evenodd" clip-rule="evenodd" d="M31.6262 12.8301V8.37407H27.1701L19.9993 1.17816L15.032 6.14631L12.8296 8.37407H8.34848V12.8301L1.17816 20.0005L8.34848 27.1709V31.6523H12.8296L15.032 33.8545L19.9993 38.8221L27.1701 31.6523H31.6262V27.1709L38.797 20.0005L31.6262 12.8301ZM8.34848 24.8148L3.53383 20.0005L15.032 8.50226L15.1854 8.37407L19.9993 3.53439L24.814 8.37407C25.8896 9.52639 26.5557 11.0886 26.5557 12.779C26.5557 16.3899 23.6109 19.3343 19.9993 19.3343C18.2589 19.3343 16.5947 19.6423 15.032 20.1797C12.4203 21.1016 10.1155 22.7144 8.34848 24.8148ZM24.814 31.6523L19.9993 36.4664L15.1854 31.6523C15.1345 31.6009 15.0833 31.5494 15.032 31.4988C14.0587 30.3459 13.4445 28.8355 13.4445 27.2215C13.4445 25.583 14.0587 24.0978 15.032 22.9451C16.2352 21.5622 18.0278 20.666 19.9993 20.666C24.6608 20.666 28.8602 18.5406 31.6262 15.186L36.4664 20.0005L31.6262 24.8148L24.814 31.6523Z" fill="#F9B101"/>
<path fill-rule="evenodd" clip-rule="evenodd" d="M54.37 26.6412H46.714V23.3123H54.37C55.2672 23.3123 56.0354 24.0549 56.0354 24.9766C56.0354 25.8984 55.2672 26.6412 54.37 26.6412ZM54.37 31.9681H46.714V28.638H54.37C55.2672 28.638 56.0354 29.3806 56.0354 30.303C56.0354 31.1991 55.2672 31.9681 54.37 31.9681ZM59.3387 24.4644C59.3387 22.7488 57.9303 21.3145 56.1883 21.3145H43.3848V33.9395H56.1883C57.9303 33.9395 59.3387 32.5308 59.3387 30.79C59.3387 29.0486 57.9303 27.6399 56.1883 27.6399C57.9303 27.6399 59.3387 26.2056 59.3387 24.4644ZM65.9972 29.9703L68.66 24.6434L71.3242 29.9703H65.9972ZM66.9958 21.3145L60.6706 33.9395H63.9994L64.998 31.9681H72.3229L73.3209 33.9395H76.6502L70.3253 21.3145H66.9958ZM90.6063 30.6361L88.1224 28.127L81.3111 21.3145H77.9822V33.9395H81.3111V24.6434L88.1224 31.4552L90.6063 33.9395H93.9361V21.3145H90.6063V30.6361ZM105.894 21.3145L98.596 26.6412V21.3145H95.2675V33.9395H98.596V28.638L105.894 33.9395H109.531L100.953 27.6399L109.531 21.3145H105.894Z" fill="#007A5D"/>
<path fill-rule="evenodd" clip-rule="evenodd" d="M80.2877 16.3682L77.8038 13.859L70.9925 7.0466H67.6636V19.6715H70.9925V10.3755L77.8038 17.1873L80.2877 19.6715H83.6174V7.0466H80.2877V16.3682Z" fill="#007A5D"/>
<path fill-rule="evenodd" clip-rule="evenodd" d="M51.7883 9.05442H46.1726V19.6816H42.8441V9.06337H37.1707L37.1704 7.00406L51.7883 7.05718V9.05442Z" fill="#007A5D"/>
<path fill-rule="evenodd" clip-rule="evenodd" d="M92.9094 15.4662H98.6385V17.5769H88.5338V9.15684H98.6385V11.2619H102.006V9.15684C102.006 7.9992 101.059 7.05182 99.9008 7.05182H87.2707C86.113 7.05182 85.1656 7.9992 85.1656 9.15684V17.5769C85.1656 18.7354 86.113 19.6819 87.2707 19.6819H99.9008C101.059 19.6819 102.006 18.7354 102.006 17.5769V15.4662V14.3542H102.006L102.006 13.3672L92.9094 13.3669V15.4662Z" fill="#007A5D"/>
<path fill-rule="evenodd" clip-rule="evenodd" d="M65.9792 17.686H56.6835V14.3401H65.7799L65.7796 12.2411L56.6835 12.2408V9.05605H65.9792V7.05881H56.6835H53.3549V19.6832H56.6835H65.9792V17.686Z" fill="#007A5D"/>
<path fill-rule="evenodd" clip-rule="evenodd" d="M116.193 17.686H106.898V14.3401H115.994L115.994 12.2411L106.898 12.2408V9.05605H116.193V7.05881H106.898H103.569V19.6832H106.898H116.193V17.686Z" fill="#007A5D"/>
<path fill-rule="evenodd" clip-rule="evenodd" d="M83.2496 0.0952148L82.1053 0.930345V0.0952148H81.5834V2.0747H82.1053V1.24348L83.2496 2.0747H83.8199L82.4749 1.08691L83.8199 0.0952148H83.2496Z" fill="black"/>
<path fill-rule="evenodd" clip-rule="evenodd" d="M80.0139 1.55676L79.6244 1.16324L78.5565 0.0952148H78.0347V2.0747H78.5565V0.617066L79.6244 1.68509L80.0139 2.0747H80.536V0.0952148H80.0139V1.55676Z" fill="black"/>
<path fill-rule="evenodd" clip-rule="evenodd" d="M75.6398 0.0952148L74.6481 2.0747H75.1699L75.3265 1.76561H76.4749L76.6315 2.0747H77.1535L76.1618 0.0952148H75.6398ZM75.4832 1.45234L75.9006 0.617066L76.3183 1.45234H75.4832Z" fill="black"/>
<path fill-rule="evenodd" clip-rule="evenodd" d="M73.8798 0.589107C73.8798 0.320144 73.659 0.0952148 73.3858 0.0952148H71.3784V2.0747H73.3858C73.659 2.0747 73.8798 1.85383 73.8798 1.58081C73.8798 1.30779 73.659 1.08691 73.3858 1.08691C73.659 1.08691 73.8798 0.862125 73.8798 0.589107ZM73.1008 1.76561H71.9003V1.24348H73.1008C73.2414 1.24348 73.3619 1.35993 73.3619 1.50448C73.3619 1.64497 73.2414 1.76561 73.1008 1.76561ZM73.1008 0.930345H71.9003V0.408493H73.1008C73.2414 0.408493 73.3619 0.524802 73.3619 0.669349C73.3619 0.813896 73.2414 0.930345 73.1008 0.930345Z" fill="black"/>
<path fill-rule="evenodd" clip-rule="evenodd" d="M46.5219 0.591764C46.5219 0.321402 46.2999 0.0952148 46.0252 0.0952148H44.0067V2.0856H46.0252C46.2999 2.0856 46.5219 1.86347 46.5219 1.58905C46.5219 1.3145 46.2999 1.09251 46.0252 1.09251C46.2999 1.09251 46.5219 0.866319 46.5219 0.591764ZM45.7386 1.77484H44.5316V1.24977H45.7386C45.8801 1.24977 46.0012 1.36692 46.0012 1.51231C46.0012 1.6535 45.8801 1.77484 45.7386 1.77484ZM45.7386 0.934958H44.5316V0.410171H45.7386C45.8801 0.410171 46.0012 0.527318 46.0012 0.672565C46.0012 0.81795 45.8801 0.934958 45.7386 0.934958Z" fill="black"/>
<path fill-rule="evenodd" clip-rule="evenodd" d="M60.141 1.56409L59.7515 1.17071L58.6836 0.102539H58.1616V2.08202H58.6836V0.62453L59.7515 1.69256L60.141 2.08202H60.663V0.102539H60.141V1.56409Z" fill="black"/>
<path fill-rule="evenodd" clip-rule="evenodd" d="M53.9387 0.416741H53.0583V2.08295H52.5364V0.418139H51.6469V0.0952148L53.9387 0.103602V0.416741Z" fill="black"/>
<path fill-rule="evenodd" clip-rule="evenodd" d="M63.1561 1.42355H64.0542V1.75444H62.47V0.434223H64.0542V0.764277H64.5822V0.434223C64.5822 0.25277 64.4338 0.104309 64.2522 0.104309H62.272C62.0904 0.104309 61.942 0.25277 61.942 0.434223V1.75444C61.942 1.93603 62.0904 2.08449 62.272 2.08449H64.2522C64.4338 2.08449 64.5822 1.93603 64.5822 1.75444V1.42355V1.24922V1.09447L63.1561 1.09433V1.42355Z" fill="black"/>
<path fill-rule="evenodd" clip-rule="evenodd" d="M56.8908 1.77052H55.4334V1.24587H56.8596V0.916793H55.4334V0.417448H56.8908V0.104309H55.4334H54.9114V2.08365H55.4334H56.8908V1.77052Z" fill="black"/>
<path fill-rule="evenodd" clip-rule="evenodd" d="M67.7686 1.77052H66.3111V1.24587H67.7374L67.7373 0.916793H66.3111V0.417448H67.7686V0.104309H66.3111H65.7892V2.08365H66.3111H67.7686V1.77052Z" fill="black"/>
<path fill-rule="evenodd" clip-rule="evenodd" d="M40.3554 0.093811C41.2393 0.093811 42.1242 0.093811 43.0094 0.093811V0.425542H41.9478V2.0842H41.417V0.425542H40.3554V0.093811Z" fill="black"/>
<path fill-rule="evenodd" clip-rule="evenodd" d="M38.055 1.42214L38.4973 0.592882L38.9396 1.42214H38.055ZM38.7627 0.0952148H38.232L37.1704 2.0856H37.7012L37.878 1.75387H39.1166L39.2935 2.0856H39.8243L38.7627 0.0952148Z" fill="black"/>
<path fill-rule="evenodd" clip-rule="evenodd" d="M83.2354 37.907L82.091 38.7421V37.907H81.5692V39.8865H82.091V39.0553L83.2354 39.8865H83.8056L82.4606 38.8987L83.8056 37.907H83.2354Z" fill="black"/>
<path fill-rule="evenodd" clip-rule="evenodd" d="M42.338 37.9192L41.1936 38.7544V37.9192H40.6718V39.8987H41.1936V39.0675L42.338 39.8987H42.9082L41.5632 38.9109L42.9082 37.9192H42.338Z" fill="black"/>
<path fill-rule="evenodd" clip-rule="evenodd" d="M79.9996 39.3686L79.6101 38.975L78.5422 37.907H78.0204V39.8865H78.5422V38.4289L79.6101 39.4969L79.9996 39.8865H80.5217V37.907H79.9996V39.3686Z" fill="black"/>
<path fill-rule="evenodd" clip-rule="evenodd" d="M75.6259 37.907L74.6342 39.8865H75.156L75.3126 39.5774H76.461L76.6176 39.8865H77.1395L76.1478 37.907H75.6259ZM75.4693 39.2641L75.8867 38.4289L76.3044 39.2641H75.4693Z" fill="black"/>
<path fill-rule="evenodd" clip-rule="evenodd" d="M73.8659 38.4009C73.8659 38.1319 73.645 37.907 73.3718 37.907H71.3644V39.8865H73.3718C73.645 39.8865 73.8659 39.6656 73.8659 39.3926C73.8659 39.1196 73.645 38.8987 73.3718 38.8987C73.645 38.8987 73.8659 38.6739 73.8659 38.4009ZM73.0868 39.5774H71.8864V39.0553H73.0868C73.2274 39.0553 73.3479 39.1717 73.3479 39.3163C73.3479 39.4568 73.2274 39.5774 73.0868 39.5774ZM73.0868 38.7421H71.8864V38.2203H73.0868C73.2274 38.2203 73.3479 38.3366 73.3479 38.4811C73.3479 38.6257 73.2274 38.7421 73.0868 38.7421Z" fill="black"/>
<path fill-rule="evenodd" clip-rule="evenodd" d="M60.1267 39.3755L59.7372 38.9822L58.6693 37.914H58.1473V39.8935H58.6693V38.436L59.7372 39.504L60.1267 39.8935H60.6487V37.914H60.1267V39.3755Z" fill="black"/>
<path fill-rule="evenodd" clip-rule="evenodd" d="M53.9244 38.2285H53.044V39.8947H52.5221V38.2299H51.6326V37.907L53.9244 37.9154V38.2285Z" fill="black"/>
<path fill-rule="evenodd" clip-rule="evenodd" d="M63.1418 39.235H64.04V39.5659H62.4557V38.2457H64.04V38.5757H64.568V38.2457C64.568 38.0642 64.4195 37.9157 64.2379 37.9157H62.2577C62.0761 37.9157 61.9277 38.0642 61.9277 38.2457V39.5659C61.9277 39.7475 62.0761 39.8959 62.2577 39.8959H64.2379C64.4195 39.8959 64.568 39.7475 64.568 39.5659V39.235V39.0607V38.9059L63.1418 38.9058V39.235Z" fill="black"/>
<path fill-rule="evenodd" clip-rule="evenodd" d="M56.8764 39.5819H55.4191V39.0573H56.8453V38.7282H55.4191V38.2289H56.8764V37.9157H55.4191H54.8971V39.8951H55.4191H56.8764V39.5819Z" fill="black"/>
<path fill-rule="evenodd" clip-rule="evenodd" d="M67.7547 39.5819H66.2972V39.0573H67.7235L67.7234 38.7282H66.2972V38.2289H67.7547V37.9157H66.2972H65.7753V39.8951H66.2972H67.7547V39.5819Z" fill="black"/>
<path fill-rule="evenodd" clip-rule="evenodd" d="M38.055 39.2339L38.4973 38.4047L38.9396 39.2339H38.055ZM38.7627 37.907H38.232L37.1704 39.8974H37.7012L37.878 39.5657H39.1166L39.2935 39.8974H39.8243L38.7627 37.907Z" fill="black"/>
<path fill-rule="evenodd" clip-rule="evenodd" d="M44.4519 39.0804V39.5779H45.538C45.675 39.5779 45.7868 39.466 45.7868 39.3292C45.7868 39.1922 45.675 39.0804 45.538 39.0804H44.4519ZM43.9219 37.9192H46.045V38.251H44.4519V38.7486H45.7299C46.0493 38.7486 46.3105 39.0098 46.3105 39.3292C46.3105 39.6485 46.0493 39.9096 45.7299 39.9096H43.9219V37.9192Z" fill="#2B2A29"/>
</svg>
